<?xml version="1.0" encoding="UTF-8" standalone="no"?>
<svg
   xmlns:dc="http://purl.org/dc/elements/1.1/"
   xmlns:cc="http://creativecommons.org/ns#"
   xmlns:rdf="http://www.w3.org/1999/02/22-rdf-syntax-ns#"
   xmlns:svg="http://www.w3.org/2000/svg"
   xmlns="http://www.w3.org/2000/svg"
   id="svg8"
   version="1.1"
   viewBox="0 0 210 297"
   height="297mm"
   width="210mm">
  <defs
     id="defs2">
    <filter
       height="1.5"
       width="1.5"
       y="-0.25"
       x="-0.25"
       style="color-interpolation-filters:sRGB;"
       id="filter26">
      <feGaussianBlur
         stdDeviation="5"
         in="SourceAlpha"
         result="result1"
         id="feGaussianBlur14" />
      <feComposite
         operator="arithmetic"
         k2="3.2"
         k1="-1"
         k4="-2"
         result="result3"
         in2="result1"
         id="feComposite16" />
      <feColorMatrix
         values="1 0 0 0 0 0 1 0 0 0 0 0 1 0 0 0 0 0 10 0 "
         result="result2"
         id="feColorMatrix18" />
      <feComposite
         result="fbSourceGraphic"
         in="SourceGraphic"
         operator="out"
         in2="result2"
         id="feComposite20" />
      <feBlend
         mode="multiply"
         in="result1"
         in2="fbSourceGraphic"
         result="result91"
         id="feBlend22" />
      <feBlend
         mode="screen"
         in="fbSourceGraphic"
         in2="result91"
         id="feBlend24" />
    </filter>
  </defs>
  <metadata
     id="metadata5">
    <rdf:RDF>
      <cc:Work
         rdf:about="">
        <dc:format>image/svg+xml</dc:format>
        <dc:type
           rdf:resource="http://purl.org/dc/dcmitype/StillImage" />
        <dc:title></dc:title>
      </cc:Work>
    </rdf:RDF>
  </metadata>
  <g
     id="layer1">
    <path
       style="stroke-width:0.26458332"
       d="m 98.474132,-27.561572 c 0,0.52916 -0.60854,0.9525 -1.37583,0.9525 -0.87313,0.0794 -1.48167,-0.34396 -1.48167,-0.9525 0,-0.52917 0.60854,-0.9525 1.37583,-0.9525 0.79375,-0.0794 1.48167,0.34395 1.48167,0.9525 z m -8.22854,-1.19063 c -0.18521,0.52917 0.34396,1.13771 1.13771,1.29646 0.68791,0.26458 1.48166,0 1.64041,-0.52917 0.15875,-0.52916 -0.34396,-1.13771 -1.13771,-1.37583 -0.68791,-0.18521 -1.4552,0.0794 -1.64041,0.60854 z m 11.694578,-0.44979 c -0.76729,0.18521 -1.29646,0.68792 -1.21708,1.29646 0.0794,0.52916 0.76729,0.87312 1.56104,0.68791 0.76729,-0.1852 1.29646,-0.68791 1.21708,-1.21708 -0.0794,-0.50271 -0.79375,-0.84667 -1.56104,-0.76729 z m 17.40958,-101.388328 c -36.697698,0 -64.769998,27.86062 -64.769998,64.558328 0,29.34229 18.46792,54.45125 44.84688,63.2883302 3.386668,0.60854 4.577288,-1.4816604 4.577288,-3.2014604 0,-1.64041 -0.0794,-10.6891598 -0.0794,-16.2454098 0,0 -18.520828,3.96875 -22.410208,-7.88459 0,0 -3.01625,-7.69937 -7.35541,-9.68375 0,0 -6.05896,-4.15395 0.42333,-4.07458 0,0 6.58812,0.52917 10.21292,6.82625 5.79437,10.21292 15.504578,7.27604 19.288118,5.52979 0.60854,-4.23333 2.32833,-7.17021 4.23333,-8.91646 -14.790198,-1.64041 -29.712698,-3.78354 -29.712698,-29.23645 0,-7.27605 2.01083,-10.9273 6.24416,-15.58396 -0.68791,-1.71979 -2.93687,-8.81063 0.68792,-17.965208 5.52979,-1.71979 18.256248,7.143748 18.256248,7.143748 5.29167,-1.48167 10.98021,-2.24896 16.61583,-2.24896 5.63563,0 11.32417,0.76729 16.61584,2.24896 0,0 12.72646,-8.889998 18.25626,-7.143748 3.62479,9.181038 1.37583,16.245418 0.68791,17.965208 4.23334,4.68312 6.82625,8.33437 6.82625,15.58396 0,25.53229 -15.58396,27.56958 -30.37417,29.23645 2.43417,2.09021 4.49792,6.05896 4.49792,12.27667 0,8.91646 -0.0794,19.9495798 -0.0794,22.1191698 0,1.71979 1.21708,3.8100004 4.57729,3.2014604 26.45833,-8.7841702 44.39708,-33.8931302 44.39708,-63.2354202 0,-36.697708 -29.76562,-64.558328 -66.46334,-64.558328 z m -39.052498,91.254788 c -0.34395,0.26458 -0.26458,0.87312 0.18521,1.37583 0.42334,0.42333 1.03188,0.60854 1.37584,0.26458 0.34395,-0.26458 0.26458,-0.87312 -0.18521,-1.37583 -0.42334,-0.42333 -1.03188,-0.60854 -1.37584,-0.26458 z m -2.8575,-2.14313 c -0.1852,0.34396 0.0794,0.76729 0.60855,1.03188 0.42333,0.26458 0.9525,0.18521 1.1377,-0.18521 0.18521,-0.34396 -0.0794,-0.76729 -0.60854,-1.03188 -0.52916,-0.15875 -0.9525,-0.0794 -1.13771,0.18521 z m 8.5725,9.41917 c -0.42333,0.34396 -0.26458,1.13771 0.34396,1.64042 0.60854,0.60854 1.37584,0.68791 1.71979,0.26458 0.34396,-0.34396 0.18521,-1.13771 -0.34395,-1.64042 -0.58209,-0.60854 -1.37584,-0.68791 -1.7198,-0.26458 z m -3.01625,-3.88938 c -0.42333,0.26459 -0.42333,0.9525 0,1.56105 0.42334,0.60854 1.13771,0.87312 1.48167,0.60854 0.42333,-0.34396 0.42333,-1.03188 0,-1.64042 -0.37042,-0.60854 -1.05833,-0.87312 -1.48167,-0.52917 z"
       id="path815" />
    <path
       style="stroke-width:0.26458332"
       d="m -99.016535,-116.25403 -0.0794,3.22791 c -7.434785,0.21167 -11.906245,4.18042 -14.763745,10.66271 -6.61459,15.29292 -27.33146,63.500002 -41.08979,94.8795823 h -3.59834 l -21.66934,-51.0910403 c -8.59896,16.8275 -18.07104,34.39584 -26.24667,51.0910403 -0.0794,0.0794 -3.96875,0 -3.96875,-0.0794 -12.40896,-29.0247603 -25.42645,-57.8378903 -37.86187,-86.9420533 -3.01625,-7.064379 -13.07042,-18.520839 -20.0025,-18.441459 0,-0.82021 -0.0794,-2.64583 -0.0794,-3.75708 h 42.83604 v 3.6777 c -5.08,0.29105 -13.96999,3.51896 -11.45645,9.04875 5.79437,13.149797 27.41083,63.579382 33.23166,76.358752 3.96875,-7.85812 15.29292,-28.8925 19.92313,-37.7825 -3.67771,-7.487708 -15.50459,-35.427702 -19.26167,-42.333332 -2.56646,-4.70958 -9.55146,-5.13292 -14.76375,-5.21229 v -3.67771 l 37.70312,0.0794 v 3.46604 c -5.13291,0.15875 -10.08062,2.06375 -7.77875,6.90563 5.00063,10.583332 8.09625,18.018124 12.72646,27.701874 1.48167,-2.8575 9.18104,-18.362084 12.72646,-26.670004 2.35479,-5.45041 -1.03187,-7.56708 -10.21292,-7.77875 0.0794,-0.9525 0,-2.72521 0.0794,-3.59833 11.7475,-0.0794 29.39521,-0.0794 32.57021,-0.15875 v 3.59833 c -5.95313,0.21167 -12.11792,3.38667 -15.37229,8.38729 l -15.66333,32.490834 c 1.69334,4.259788 16.74813,37.782498 18.30917,41.460208 l 32.385,-74.771252 c -2.2754,-6.11187 -9.63081,-7.43479 -12.48831,-7.48771 v -3.67771 l 33.813745,0.29105 z"
       id="path826" />
    <path
       style="stroke-width:0.26458332"
       d="m -191.28388,180.1306 c -3.65125,0 -6.58812,-2.93688 -6.58812,-6.50875 0,-3.65125 2.93687,-6.58813 6.58812,-6.58813 3.59834,0 6.50875,2.93688 6.50875,6.58813 0,3.59833 -2.93687,6.50875 -6.50875,6.50875 z m 80.03646,-13.09688 c 0,36.24792 -29.36875,65.61667 -65.61667,65.61667 -36.24791,0 -65.61667,-29.36875 -65.61667,-65.61667 0,-36.2479 29.36876,-65.61665 65.61667,-65.61665 36.24792,0 65.61667,29.36875 65.61667,65.61665 z m -35.00437,-10.90083 c -2.48709,0 -4.68313,1.03187 -6.29709,2.64583 -5.92666,-4.10104 -13.91708,-6.74687 -22.78062,-7.03791 l 4.60375,-20.71687 14.65791,3.30728 c 0,3.59834 2.93688,6.50875 6.50875,6.50875 3.65125,0 6.58813,-2.98979 6.58813,-6.58812 0,-3.59833 -2.93688,-6.58812 -6.58813,-6.58812 -2.56645,0 -4.7625,1.53459 -5.84729,3.65125 l -16.1925,-3.59833 c -0.79375,-0.21167 -1.61396,0.37042 -1.82562,1.16417 l -5.05354,22.85999 c -8.78417,0.37041 -16.69521,2.98979 -22.62188,7.09083 -1.61396,-1.69333 -3.88937,-2.69875 -6.37646,-2.69875 -9.23396,0 -12.25021,12.40896 -3.81,16.61583 -0.29104,1.32292 -0.44979,2.69875 -0.44979,4.10104 0,13.91709 15.66333,25.18834 34.925,25.18834 19.34104,0 35.00437,-11.27125 35.00437,-25.18834 0,-1.40229 -0.15875,-2.8575 -0.5027,-4.18041 8.28145,-4.23334 5.23875,-16.53646 -3.94229,-16.53646 z m -18.2298,30.74458 c -4.81541,4.81542 -20.13479,4.73604 -24.765,0 -0.58208,-0.58208 -1.61395,-0.58208 -2.19604,0 -0.66146,0.66146 -0.66146,1.69334 0,2.27542 6.0325,6.0325 23.09813,6.0325 29.15709,0 0.66145,-0.58208 0.66145,-1.61396 0,-2.27542 -0.58209,-0.58208 -1.61396,-0.58208 -2.19605,0 z m 2.0373,-19.84375 c -3.59834,0 -6.50875,2.93688 -6.50875,6.58813 0,3.59833 2.93687,6.50875 6.50875,6.50875 3.65125,0 6.58812,-2.93688 6.58812,-6.50875 0,-3.65125 -2.91042,-6.58813 -6.58812,-6.58813 z"
       id="path837" />
    <path
       style="stroke-width:0.26458332"
       d="M 84.20217,200.53398 H 84.943 c 3.36021,0 6.74688,0 10.10708,0.0265 0.42334,0 0.82021,-0.10584 0.9525,0.55562 1.87855,9.23396 7.9375,14.44625 16.6423,16.90688 7.11729,2.01083 14.31395,2.06375 21.51062,0.47625 8.94292,-1.95792 14.81667,-7.48771 17.99167,-15.98084 2.11666,-5.68854 2.83104,-11.58875 2.91041,-17.59479 0.0265,-1.53458 0.0794,-12.43541 -0.0529,-13.97 l -0.23812,-0.0794 c -0.21167,0.39688 -0.44979,0.76729 -0.66146,1.16417 -5.84729,11.4035 -16.21896,17.83287 -27.88708,18.28266 -27.25208,1.05834 -44.82042,-15.08125 -45.50833,-46.61958 -0.13229,-6.27063 0.47625,-12.40896 2.19604,-18.44146 5.45042,-18.81187 19.73792,-31.273747 40.71937,-31.432497 16.21896,-0.10583 26.85521,10.239377 30.74459,18.600207 0.13229,0.29104 0.34395,0.60854 0.635,0.50271 V 96.632103 h 11.72104 c 0,74.162707 0.0265,87.894587 0.0265,87.894587 -0.0265,20.76979 -7.06438,38.02062 -27.25209,42.91541 -18.38854,4.47146 -42.06874,1.27 -51.85833,-15.13416 -2.11666,-3.57188 -3.12208,-7.48771 -3.43958,-11.77396 z m 38.70854,-97.04917 c -13.89063,-0.13229 -28.70729,10.76854 -30.42708,35.40125 -1.0848,15.61042 3.91583,32.33209 18.9177,39.31709 7.3025,3.41312 19.65854,3.96875 28.65438,-2.30188 12.59416,-8.78417 16.58937,-25.66458 14.49916,-40.74583 -2.56645,-18.81188 -12.64708,-31.75 -31.64416,-31.67063 z"
       id="path848" />
    <path
       style="stroke-width:0.26458332"
       d="m 410.65193,80.544474 c -0.82021,-2.35479 -4.15396,-2.35479 -5.00062,0 l -14.94896,46.249166 h 34.925 c -0.0265,0 -14.97542,-46.249166 -14.97542,-46.249166 z m -27.59604,69.532496 c -0.68792,2.11667 0.0794,4.47146 1.87854,5.82084 l 65.59021,48.68333 -59.84875,-77.7875 z m 42.545,-23.28333 24.95021,77.7875 24.95021,-77.7875 z m 92.44542,23.28333 -7.62,-23.28333 -59.87521,77.7875 65.59021,-48.68333 c 1.82563,-1.34938 2.56646,-3.70417 1.905,-5.82084 z M 495.45089,80.544474 c -0.8202,-2.35479 -4.15395,-2.35479 -5.00062,0 l -14.97542,46.249166 h 34.925 z"
       id="path859" />
    <path
       style="stroke-width:0.26458332"
       d="m 891.83865,168.78336 c 0,-25.7175 -16.8566,-33.25813 -16.8566,-33.25813 -16.54175,-7.59354 -60.47317,-7.51416 -76.85617,0 0,0 -16.85925,7.54063 -16.85925,33.25813 0,30.61229 -1.74625,68.63292 27.94794,76.49104 10.71827,2.83104 19.92842,3.43959 27.3394,3.01625 13.44348,-0.74083 20.98675,-4.78896 20.98675,-4.78896 l -0.4498,-9.76312 c 0,0 -9.60702,3.01625 -20.40466,2.67229 -10.69181,-0.37042 -21.96042,-1.16417 -23.71461,-14.2875 a 27.130375,27.130375 0 0 1 -0.23812,-3.67771 c 22.65627,5.52979 41.97615,2.40771 47.29427,1.77271 14.84842,-1.77271 27.78125,-10.9273 29.4296,-19.28813 2.59292,-13.17625 2.38125,-32.14687 2.38125,-32.14687 z m -19.8755,33.12583 h -12.33752 v -30.21542 c 0,-13.14979 -16.93333,-13.6525 -16.93333,1.82563 v 16.53646 h -12.25815 v -16.53911 c 0,-15.47812 -16.93333,-14.97541 -16.93333,-1.82562 v 30.21541 h -12.36398 c 0,-32.30562 -1.37583,-39.13187 4.87098,-46.30208 6.85271,-7.64646 21.11904,-8.14917 27.47169,1.61396 l 3.06917,5.15937 3.06916,-5.15937 c 6.37911,-9.81604 20.66925,-9.2075 27.47169,-1.61396 6.27327,7.22313 4.86833,14.02292 4.86833,46.30208 z"
       id="path870" />
    <path
       style="stroke-width:0.26458332"
       d="M 515.49669,-119.00526 H 405.43002 c -7.0141,0 -12.7,5.6859 -12.7,12.7 v 76.200002 c 0,7.01411 5.6859,12.7 12.7,12.7 h 110.06667 c 7.0141,0 12.7,-5.68589 12.7,-12.7 v -76.200002 c 0,-7.0141 -5.6859,-12.7 -12.7,-12.7 z m 0,12.7 v 10.796326 c -5.93249,4.831027 -15.39029,12.343077 -35.60948,28.175479 -4.45584,3.504936 -13.28234,11.9253 -19.42385,11.82714 -6.14045,0.09922 -14.96986,-8.323527 -19.42386,-11.82714 -20.21602,-15.83002 -29.67619,-23.343658 -35.60948,-28.175479 v -10.796326 z m -110.06667,76.200002 v -49.107195 c 6.06267,4.828911 14.6603,11.605155 27.76485,21.866755 5.783,4.552156 15.91045,14.601295 27.26849,14.540177 11.3022,0.06112 21.30134,-9.842236 27.2661,-14.538061 13.10428,-10.261335 21.7043,-17.039431 27.76723,-21.868606 v 49.10693 z"
       id="path881" />
    <path
       style="stroke-width:0.26458332"
       d="m -198.86969,449.31349 c 0,9.35805 -7.58613,16.94418 -16.94419,16.94418 -9.35804,0 -16.94391,-7.58613 -16.94391,-16.94418 0,-9.35805 7.58613,-16.94419 16.94418,-16.94419 9.35805,0 16.94392,7.58641 16.94392,16.94419 z m 46.47671,12.50156 c -2.21033,-40.90459 -34.97395,-73.70948 -75.92219,-75.92219 -2.41697,-0.1307 -4.44262,1.81134 -4.44262,4.23175 v 12.71825 c 0,2.22647 1.71714,4.09363 3.93885,4.2381 29.58889,1.92722 53.3064,25.58573 55.2376,55.23759 0.14472,2.22171 2.01189,3.93886 4.23809,3.93886 h 12.71826 c 2.42067,2.6e-4 4.36271,-2.02539 4.23201,-4.44236 z m 38.16588,0.0762 c -2.22092,-61.86488 -51.99724,-111.93251 -114.16427,-114.16427 -2.38919,-0.0857 -4.36642,1.84441 -4.36642,4.23492 v 12.71799 c 0,2.28203 1.80842,4.13941 4.0886,4.23307 50.58278,2.07407 91.18257,42.68152 93.25637,93.25637 0.0934,2.28018 1.95078,4.0886 4.23307,4.0886 h 12.71799 c 2.39025,-2.6e-4 4.32038,-1.97749 4.23466,-4.36668 z"
       id="path892" />
    <path
       style="stroke-width:0.26458332"
       d="m 219.85135,360.33539 -48.78123,40.17698 v 43.36256 a 4.2333333,4.2333333 0 0 0 4.23333,4.23333 l 29.64921,-0.0767 a 4.2333333,4.2333333 0 0 0 4.21217,-4.23333 v -25.3233 a 4.2333333,4.2333333 0 0 1 4.23333,-4.23333 h 16.93333 a 4.2333333,4.2333333 0 0 1 4.23334,4.23333 v 25.30475 a 4.2333333,4.2333333 0 0 0 4.23333,4.24656 l 29.63863,0.082 a 4.2333333,4.2333333 0 0 0 4.23333,-4.23333 v -43.39165 l -48.77065,-40.14787 a 3.2252708,3.2252708 0 0 0 -4.04812,0 z m 77.0546,27.30765 -22.11916,-18.23244 v -36.64744 a 3.175,3.175 0 0 0 -3.175,-3.175 h -14.81667 a 3.175,3.175 0 0 0 -3.175,3.175 v 19.2114 l -23.68815,-19.48921 a 12.7,12.7 0 0 0 -16.13958,0 l -66.97398,55.15769 a 3.175,3.175 0 0 0 -0.42333,4.47145 l 6.74687,8.20209 a 3.175,3.175 0 0 0 4.4741,0.43127 l 62.2353,-51.26038 a 3.2252708,3.2252708 0 0 1 4.04812,0 l 62.23794,51.26038 a 3.175,3.175 0 0 0 4.47146,-0.42334 l 6.74687,-8.20208 a 3.175,3.175 0 0 0 -0.44979,-4.47939 z"
       id="path903" />
    <g
       transform="matrix(0.26458333,0,0,0.26458333,495.38389,372.21777)"
       id="surface1">
      <path
         style="fill:#a8b0ab;fill-opacity:1;fill-rule:nonzero;stroke:none"
         d="m 2.300781,0.375 83.128907,0.148438 c 1.160156,0 2.199218,-0.171875 2.199218,2.332031 L 87.527344,30.410156 H 0.203125 V 2.753906 C 0.203125,1.519531 0.324219,0.375 2.300781,0.375 Z"
         id="path914" />
      <path
         style="fill:#000000;fill-opacity:1;fill-rule:nonzero;stroke:none"
         d="M 86.351563,0 H 1.648438 C 0.738281,0 0,0.742188 0,1.65625 V 30.625 C 0,30.832031 0.167969,31 0.371094,31 H 87.628906 C 87.832031,31 88,30.832031 88,30.625 V 1.65625 C 88,0.742188 87.261719,0 86.351563,0 Z M 1.648438,0.75 h 84.703125 c 0.5,0 0.902343,0.40625 0.902343,0.90625 0,0 0,11.699219 0,20.132813 H 26.515625 c -2.21875,4.039062 -6.492187,6.78125 -11.398437,6.78125 -4.910157,0 -9.183594,-2.738282 -11.402344,-6.78125 h -2.96875 c 0,-8.433594 0,-20.132813 0,-20.132813 0,-0.5 0.402344,-0.90625 0.902344,-0.90625 z"
         id="path916" />
      <path
         style="fill:#ffffff;fill-opacity:1;fill-rule:nonzero;stroke:none"
         d="m 54.125,24.171875 c 0.234375,0 0.445313,0.01953 0.636719,0.05859 0.191406,0.04297 0.351562,0.109375 0.488281,0.203125 0.136719,0.09375 0.242188,0.21875 0.316406,0.375 0.07422,0.152344 0.113282,0.34375 0.113282,0.574219 0,0.246093 -0.05469,0.449218 -0.167969,0.613281 -0.109375,0.164062 -0.273438,0.300781 -0.492188,0.40625 0.300782,0.08594 0.523438,0.238281 0.671875,0.453125 0.148438,0.21875 0.222657,0.480469 0.222657,0.785156 0,0.246094 -0.04687,0.460938 -0.144532,0.640625 -0.09375,0.179688 -0.222656,0.328125 -0.382812,0.441406 -0.164063,0.113282 -0.347656,0.199219 -0.554688,0.253907 -0.207031,0.05469 -0.417968,0.08203 -0.636718,0.08203 H 51.835938 V 24.17187 Z m -0.136719,1.976563 c 0.191407,0 0.347657,-0.04687 0.472657,-0.136719 0.121093,-0.09375 0.183593,-0.238281 0.183593,-0.445313 0,-0.113281 -0.01953,-0.207031 -0.0625,-0.277343 -0.03906,-0.07422 -0.09375,-0.132813 -0.164062,-0.171875 -0.06641,-0.04297 -0.144531,-0.07031 -0.234375,-0.08594 -0.08594,-0.01563 -0.179688,-0.02344 -0.273438,-0.02344 H 52.90625 v 1.140625 z m 0.0625,2.074218 c 0.105469,0 0.207032,-0.01172 0.300782,-0.03125 0.09766,-0.01953 0.179687,-0.05469 0.253906,-0.101562 0.07031,-0.05078 0.128906,-0.113281 0.171875,-0.195313 0.04297,-0.08203 0.06641,-0.1875 0.06641,-0.316406 0,-0.25 -0.07031,-0.429687 -0.210937,-0.535156 -0.140625,-0.109375 -0.328125,-0.160156 -0.558594,-0.160156 H 52.90625 v 1.339843 z"
         id="path918" />
      <path
         style="fill:#ffffff;fill-opacity:1;fill-rule:nonzero;stroke:none"
         d="m 56.101563,24.171875 h 1.199218 l 1.136719,1.929688 1.128906,-1.929688 h 1.191407 l -1.800782,3.011719 v 1.875 H 57.886719 V 27.15625 Z"
         id="path920" />
      <path
         style="fill:#ffffff;fill-opacity:1;fill-rule:nonzero;stroke:none"
         d="m 25.121094,14.472656 c 0.0039,5.554688 -4.472656,10.0625 -9.996094,10.066407 -5.519531,0.0039 -10,-4.5 -10.003906,-10.054688 0,-0.0039 0,-0.0078 0,-0.01172 C 5.117188,8.914063 9.59375,4.40625 15.113281,4.402344 c 5.523438,-0.00391 10.003907,4.5 10.007813,10.058594 0,0 0,0.0078 0,0.01172 z"
         id="path922" />
      <path
         style="fill:#000000;fill-opacity:1;fill-rule:nonzero;stroke:none"
         d="m 23.25,6.273438 c 2.214844,2.234375 3.324219,4.964843 3.324219,8.199218 0,3.230469 -1.089844,5.933594 -3.269531,8.109375 -2.3125,2.289063 -5.042969,3.433594 -8.199219,3.433594 -3.113281,0 -5.800781,-1.136719 -8.054688,-3.40625 C 4.792969,20.339844 3.667969,17.625 3.667969,14.472656 c 0,-3.15625 1.125,-5.890625 3.382812,-8.199218 2.195313,-2.230469 4.882813,-3.347657 8.054688,-3.347657 3.210937,0 5.925781,1.117188 8.144531,3.347657 z M 8.542969,7.777344 c -1.875,1.902344 -2.8125,4.136719 -2.8125,6.695312 0,2.5625 0.929687,4.773438 2.78125,6.640625 1.855469,1.867188 4.066406,2.800782 6.628906,2.800782 2.5625,0 4.789063,-0.941407 6.683594,-2.828125 1.796875,-1.753907 2.695312,-3.957032 2.695312,-6.613282 0,-2.636718 -0.914062,-4.871093 -2.738281,-6.710937 -1.828125,-1.839844 -4.039062,-2.757813 -6.640625,-2.757813 -2.601562,0 -4.800781,0.925782 -6.597656,2.773438 z m 4.933594,5.570312 C 13.1875,12.71875 12.761719,12.40625 12.1875,12.40625 c -1.011719,0 -1.515625,0.683594 -1.515625,2.054688 0,1.367187 0.503906,2.050781 1.515625,2.050781 0.667969,0 1.144531,-0.332031 1.429688,-1 l 1.402343,0.75 c -0.667968,1.195312 -1.667968,1.792969 -3.003906,1.792969 -1.03125,0 -1.859375,-0.316407 -2.476562,-0.953125 -0.621094,-0.636719 -0.933594,-1.511719 -0.933594,-2.628907 0,-1.101562 0.320312,-1.972656 0.960937,-2.617187 0.640625,-0.644531 1.4375,-0.96875 2.390625,-0.96875 1.414063,0 2.421875,0.5625 3.035157,1.679687 z m 6.589843,0 C 19.78125,12.71875 19.359375,12.40625 18.808594,12.40625 c -1.03125,0 -1.550781,0.683594 -1.550781,2.054688 0,1.367187 0.519531,2.050781 1.550781,2.050781 0.667969,0 1.136719,-0.332031 1.402344,-1 l 1.433593,0.75 c -0.667968,1.195312 -1.667968,1.792969 -3.003906,1.792969 -1.027344,0 -1.851562,-0.316407 -2.46875,-0.953125 -0.621094,-0.636719 -0.929687,-1.511719 -0.929687,-2.628907 0,-1.101562 0.3125,-1.972656 0.941406,-2.617187 0.628906,-0.644531 1.429687,-0.96875 2.402344,-0.96875 1.410156,0 2.417968,0.5625 3.027343,1.679687 z"
         id="path924" />
      <path
         style="fill:#ffffff;fill-opacity:1;fill-rule:nonzero;stroke:none"
         d="m 63.804688,11.230469 c 0,4.378906 -3.527344,7.925781 -7.875,7.925781 -4.351563,0 -7.875,-3.546875 -7.875,-7.925781 0,-4.375 3.523437,-7.925781 7.875,-7.925781 4.347656,0 7.875,3.550781 7.875,7.925781 z"
         id="path926" />
      <path
         style="fill:#000000;fill-opacity:1;fill-rule:nonzero;stroke:none"
         d="m 58.207031,8.9375 c 0,-0.304687 -0.246093,-0.550781 -0.546875,-0.550781 h -3.480468 c -0.300782,0 -0.546875,0.246094 -0.546875,0.550781 v 3.5 h 0.96875 v 4.148438 h 2.636718 V 12.4375 h 0.96875 z"
         id="path928" />
      <path
         style="fill:#000000;fill-opacity:1;fill-rule:nonzero;stroke:none"
         d="m 57.109375,6.726563 c 0,0.660156 -0.53125,1.199218 -1.1875,1.199218 -0.660156,0 -1.191406,-0.539062 -1.191406,-1.199218 0,-0.660157 0.53125,-1.195313 1.191406,-1.195313 0.65625,0 1.1875,0.535156 1.1875,1.195313 z"
         id="path930" />
      <path
         style="fill:#000000;fill-opacity:1;fill-rule:evenodd;stroke:none"
         d="m 55.910156,2.5 c -2.355468,0 -4.351562,0.828125 -5.984375,2.480469 -1.671875,1.710937 -2.507812,3.738281 -2.507812,6.078125 0,2.335937 0.835937,4.347656 2.507812,6.03125 1.675782,1.683594 3.671875,2.523437 5.984375,2.523437 2.339844,0 4.371094,-0.847656 6.085938,-2.542968 1.617187,-1.613282 2.429687,-3.617188 2.429687,-6.011719 0,-2.398438 -0.824218,-4.421875 -2.46875,-6.078125 C 60.308594,3.328125 58.292969,2.5 55.910156,2.5 Z m 0.01953,1.539063 c 1.929687,0 3.570312,0.683593 4.917968,2.054687 1.363282,1.355469 2.042969,3.007813 2.042969,4.964844 0,1.964844 -0.667969,3.601562 -2,4.898437 -1.40625,1.398438 -3.058594,2.097657 -4.960937,2.097657 -1.902344,0 -3.539063,-0.691407 -4.917969,-2.078125 -1.375,-1.382813 -2.0625,-3.023438 -2.0625,-4.917969 0,-1.898438 0.695312,-3.554688 2.085937,-4.964844 C 52.367188,4.722656 54,4.039063 55.929688,4.039063 Z"
         id="path932" />
    </g>
    <g
       transform="matrix(0.26458333,0,0,0.26458333,845.72258,360.03514)"
       id="surface1-3">
      <path
         style="fill:#a8b0ab;fill-opacity:1;fill-rule:nonzero;stroke:none"
         d="M 3.410156,0.445313 116.76172,0.648438 c 1.58594,0 3,-0.234375 3,3.160156 l -0.14063,37.328125 H 0.546875 V 3.667969 c 0,-1.671875 0.164063,-3.222656 2.863281,-3.222656 z"
         id="path2" />
      <path
         style="fill:#000000;fill-opacity:1;fill-rule:nonzero;stroke:none"
         d="M 117.75391,0 H 2.246094 C 1.007813,0 0,1.007813 0,2.246094 V 41.492188 C 0,41.773438 0.226563,42 0.507813,42 H 119.49219 C 119.77344,42 120,41.773438 120,41.492188 V 2.246094 C 120,1.007813 118.99219,0 117.75391,0 Z M 2.246094,1.015625 H 117.75391 c 0.67968,0 1.23047,0.550781 1.23047,1.230469 0,0 0,15.792969 0,27.214844 H 36.429688 c -3.027344,5.472656 -8.855469,9.183593 -15.546875,9.183593 -6.695313,0 -12.523438,-3.710937 -15.546875,-9.183593 H 1.015625 c 0,-11.421875 0,-27.214844 0,-27.214844 0,-0.679688 0.550781,-1.230469 1.230469,-1.230469 z"
         id="path4" />
      <path
         style="fill:#ffffff;fill-opacity:1;fill-rule:nonzero;stroke:none"
         d="m 34.523438,19.542969 c 0.0039,7.53125 -6.097657,13.636719 -13.628907,13.644531 -7.527343,0.0039 -13.636718,-6.097656 -13.640625,-13.625 0,-0.0078 0,-0.01172 0,-0.01953 C 7.25,12.015625 13.351563,5.90625 20.878906,5.902344 28.410156,5.898438 34.519531,12 34.523438,19.527344 c 0,0.0078 0,0.01172 0,0.01563 z"
         id="path6" />
      <path
         style="fill:#000000;fill-opacity:1;fill-rule:nonzero;stroke:none"
         d="m 31.972656,8.441406 c 3.023438,3.023438 4.535157,6.722657 4.535157,11.101563 0,4.382812 -1.484375,8.042969 -4.457032,10.988281 -3.15625,3.105469 -6.882812,4.652344 -11.183593,4.652344 -4.246094,0 -7.910157,-1.535156 -10.984375,-4.613281 -3.078125,-3.074219 -4.613282,-6.75 -4.613282,-11.027344 0,-4.273438 1.535157,-7.972656 4.613282,-11.101563 2.996093,-3.027343 6.660156,-4.535156 10.984375,-4.535156 4.378906,0 8.082031,1.507813 11.105468,4.535156 z m -20.054687,2.03125 c -2.558594,2.582032 -3.835938,5.605469 -3.835938,9.078125 0,3.464844 1.265625,6.464844 3.796875,8.992188 2.53125,2.53125 5.542969,3.796875 9.035157,3.796875 3.496093,0 6.53125,-1.277344 9.117187,-3.832031 2.449219,-2.375 3.675781,-5.359375 3.675781,-8.960938 0,-3.570312 -1.246093,-6.601562 -3.738281,-9.09375 C 27.480469,7.964844 24.460938,6.71875 20.914063,6.71875 c -3.546875,0 -6.546875,1.253906 -8.996094,3.753906 z m 6.726562,7.550782 c -0.390625,-0.851563 -0.976562,-1.277344 -1.753906,-1.277344 -1.378906,0 -2.070312,0.925781 -2.070312,2.78125 0,1.855469 0.691406,2.785156 2.070312,2.785156 0.910156,0 1.558594,-0.453125 1.949219,-1.359375 L 20.75,21.972656 c -0.910156,1.617188 -2.277344,2.425782 -4.097656,2.425782 -1.40625,0 -2.53125,-0.429688 -3.378906,-1.289063 -0.84375,-0.863281 -1.269532,-2.050781 -1.269532,-3.5625 0,-1.488281 0.4375,-2.671875 1.308594,-3.546875 0.871094,-0.875 1.960938,-1.308594 3.261719,-1.308594 1.925781,0 3.304687,0.757813 4.140625,2.273438 z m 8.988282,0 c -0.390625,-0.851563 -0.964844,-1.277344 -1.71875,-1.277344 -1.40625,0 -2.109375,0.925781 -2.109375,2.78125 0,1.855469 0.703125,2.785156 2.109375,2.785156 0.914062,0 1.550781,-0.453125 1.914062,-1.359375 l 1.953125,1.019531 c -0.90625,1.617188 -2.273437,2.425782 -4.089844,2.425782 -1.402343,0 -2.527343,-0.429688 -3.371093,-1.289063 -0.84375,-0.863281 -1.269532,-2.050781 -1.269532,-3.5625 0,-1.488281 0.429688,-2.671875 1.289063,-3.546875 0.855469,-0.875 1.949219,-1.308594 3.273437,-1.308594 1.921875,0 3.300782,0.757813 4.128907,2.273438 z"
         id="path8" />
      <path
         style="fill:#ffffff;fill-opacity:1;fill-rule:nonzero;stroke:none"
         d="m 48.09375,32.746094 c 0.316406,0 0.605469,0.03125 0.863281,0.08594 0.261719,0.05469 0.484375,0.144532 0.667969,0.273438 0.1875,0.125 0.332031,0.292969 0.433594,0.503906 0.101562,0.210938 0.152344,0.46875 0.152344,0.777344 0,0.335937 -0.07422,0.613281 -0.226563,0.835937 -0.152344,0.222657 -0.375,0.402344 -0.675781,0.546875 0.410156,0.117188 0.71875,0.324219 0.917969,0.617188 0.203125,0.292969 0.304687,0.648437 0.304687,1.0625 0,0.332031 -0.06641,0.621094 -0.195312,0.867187 -0.132813,0.242188 -0.308594,0.445313 -0.527344,0.597657 -0.21875,0.15625 -0.46875,0.269531 -0.75,0.34375 -0.285156,0.07422 -0.574219,0.113281 -0.871094,0.113281 h -3.214844 v -6.625 z m -0.1875,2.679687 c 0.261719,0 0.476563,-0.0625 0.640625,-0.183593 0.167969,-0.125 0.25,-0.324219 0.25,-0.601563 0,-0.15625 -0.02734,-0.28125 -0.08203,-0.378906 -0.05469,-0.101563 -0.128906,-0.175781 -0.222656,-0.234375 -0.09375,-0.05469 -0.199219,-0.09375 -0.320313,-0.113281 -0.121094,-0.02344 -0.246094,-0.03516 -0.375,-0.03516 h -1.367187 v 1.546875 z m 0.08594,2.808594 c 0.144531,0 0.277343,-0.01172 0.410156,-0.03906 0.128906,-0.02734 0.242187,-0.07422 0.34375,-0.140625 0.09766,-0.0625 0.175781,-0.152344 0.234375,-0.265625 0.0625,-0.109375 0.08984,-0.25 0.08984,-0.425782 0,-0.339843 -0.09766,-0.582031 -0.289063,-0.726562 -0.191406,-0.144531 -0.445312,-0.21875 -0.761719,-0.21875 h -1.589843 v 1.816406 z"
         id="path10" />
      <path
         style="fill:#ffffff;fill-opacity:1;fill-rule:nonzero;stroke:none"
         d="m 50.789063,32.746094 h 1.632812 l 1.550781,2.617187 1.539063,-2.617187 h 1.625 l -2.457031,4.082031 v 2.542969 H 53.21875 v -2.582031 z"
         id="path12" />
      <path
         style="fill:#ffffff;fill-opacity:1;fill-rule:nonzero;stroke:none"
         d="m 72.515625,32.746094 2.769531,4.445312 h 0.01563 v -4.445312 h 1.367188 v 6.625 H 75.210938 L 72.453125,34.9375 h -0.01953 v 4.433594 h -1.367188 v -6.625 z"
         id="path14" />
      <path
         style="fill:#ffffff;fill-opacity:1;fill-rule:nonzero;stroke:none"
         d="M 82.195313,34.511719 C 82.109375,34.371094 82,34.25 81.871094,34.144531 81.738281,34.039063 81.59375,33.957031 81.429688,33.898438 81.265625,33.839844 81.09375,33.8125 80.914063,33.8125 c -0.328125,0 -0.605469,0.0625 -0.835938,0.1875 -0.226562,0.128906 -0.414062,0.296875 -0.554687,0.511719 -0.144532,0.210937 -0.246094,0.453125 -0.3125,0.726562 -0.0625,0.273438 -0.09766,0.554688 -0.09766,0.84375 0,0.277344 0.03516,0.550782 0.09766,0.8125 0.06641,0.261719 0.167968,0.5 0.3125,0.707032 0.140625,0.210937 0.328125,0.378906 0.554687,0.507812 0.230469,0.125 0.507813,0.1875 0.835938,0.1875 0.445312,0 0.792968,-0.132812 1.042968,-0.40625 0.25,-0.273437 0.40625,-0.632812 0.460938,-1.078125 h 1.410156 c -0.03906,0.414063 -0.132812,0.789063 -0.289062,1.125 -0.152344,0.332031 -0.359375,0.617188 -0.613282,0.851563 -0.25,0.238281 -0.546875,0.417968 -0.890625,0.542968 -0.339843,0.121094 -0.710937,0.183594 -1.121093,0.183594 -0.507813,0 -0.964844,-0.08594 -1.367188,-0.265625 -0.40625,-0.171875 -0.75,-0.417969 -1.027344,-0.726562 -0.28125,-0.308594 -0.492187,-0.671875 -0.640625,-1.089844 -0.148437,-0.417969 -0.222656,-0.867188 -0.222656,-1.351563 0,-0.496093 0.07422,-0.953125 0.222656,-1.378906 0.148438,-0.421875 0.359375,-0.792969 0.640625,-1.109375 0.277344,-0.3125 0.621094,-0.5625 1.027344,-0.742187 0.402344,-0.179688 0.859375,-0.265625 1.367188,-0.265625 0.367187,0 0.710937,0.05078 1.035156,0.15625 0.324219,0.105468 0.617187,0.257812 0.871094,0.460937 0.257812,0.199219 0.46875,0.449219 0.636718,0.746094 0.167969,0.296875 0.269532,0.636719 0.316407,1.019531 h -1.410157 c -0.02734,-0.164062 -0.08203,-0.320312 -0.167968,-0.457031 z"
         id="path16" />
      <path
         style="fill:#ffffff;fill-opacity:1;fill-rule:nonzero;stroke:none"
         d="m 98.355469,32.746094 2.765621,4.445312 h 0.0156 v -4.445312 h 1.36719 v 6.625 h -1.45703 L 98.292969,34.9375 h -0.01953 v 4.433594 H 96.90625 v -6.625 z"
         id="path18" />
      <path
         style="fill:#ffffff;fill-opacity:1;fill-rule:nonzero;stroke:none"
         d="m 106.64063,32.746094 c 0.42578,0 0.82421,0.07031 1.19531,0.207031 0.36719,0.132813 0.68359,0.339844 0.95312,0.609375 0.26953,0.273438 0.48047,0.613281 0.63282,1.019531 0.15234,0.410157 0.22656,0.890625 0.22656,1.441407 0,0.480468 -0.0625,0.925781 -0.1836,1.332031 -0.125,0.410156 -0.3125,0.761719 -0.5625,1.058594 -0.25,0.296875 -0.5625,0.53125 -0.9375,0.699218 -0.375,0.171875 -0.8164,0.257813 -1.32421,0.257813 h -2.85938 v -6.625 z m -0.10157,5.398437 c 0.21094,0 0.41407,-0.03516 0.61328,-0.105468 0.19532,-0.06641 0.375,-0.179688 0.52735,-0.335938 0.15625,-0.15625 0.27734,-0.363281 0.37109,-0.617187 0.0937,-0.253907 0.14063,-0.5625 0.14063,-0.925782 0,-0.332031 -0.0352,-0.632812 -0.0977,-0.902343 -0.0664,-0.269532 -0.17187,-0.5 -0.32031,-0.691407 -0.1484,-0.191406 -0.34371,-0.339843 -0.58981,-0.441406 -0.24609,-0.101562 -0.54687,-0.152344 -0.90234,-0.152344 h -1.04297 v 4.171875 z"
         id="path20" />
      <path
         style="fill:#ffffff;fill-opacity:1;fill-rule:nonzero;stroke:none"
         d="m 87.800781,14.980469 c 0.0039,5.5 -4.449218,9.960937 -9.953125,9.96875 -5.5,0 -9.960937,-4.453125 -9.964843,-9.953125 0,-0.0078 0,-0.01172 0,-0.01563 -0.0039,-5.5 4.449218,-9.960938 9.953125,-9.964844 5.5,-0.00391 9.960937,4.449219 9.964843,9.949219 0,0.0078 0,0.01172 0,0.01563 z"
         id="path22" />
      <path
         style="fill:#000000;fill-opacity:1;fill-rule:nonzero;stroke:none"
         d="m 77.824219,3.386719 c 3.253906,0 6,1.121094 8.246094,3.359375 2.246093,2.242187 3.367187,4.988281 3.367187,8.234375 0,3.246094 -1.101562,5.960937 -3.308594,8.148437 -2.34375,2.296875 -5.109375,3.445313 -8.304687,3.445313 -3.152344,0 -5.871094,-1.136719 -8.15625,-3.417969 -2.28125,-2.28125 -3.421875,-5.003906 -3.421875,-8.175781 0,-3.167969 1.140625,-5.914063 3.421875,-8.234375 2.226562,-2.238281 4.945312,-3.359375 8.15625,-3.359375 z m -8.96875,8.480469 c -0.347656,0.976562 -0.519531,2.015625 -0.519531,3.113281 0,2.570312 0.9375,4.792969 2.816406,6.667969 1.875,1.875 4.109375,2.8125 6.703125,2.8125 2.59375,0 4.847656,-0.949219 6.761719,-2.84375 C 85.257813,21 85.789063,20.324219 86.203125,19.589844 l -4.371094,-1.945313 c -0.296875,1.46875 -1.609375,2.464844 -3.191406,2.582032 v 1.785156 H 77.308594 V 20.226563 C 76.007813,20.210938 74.75,19.679688 73.789063,18.835938 l 1.597656,-1.609375 c 0.769531,0.722656 1.539062,1.046875 2.585937,1.046875 0.683594,0 1.4375,-0.265625 1.4375,-1.152344 0,-0.3125 -0.121093,-0.53125 -0.3125,-0.695313 l -1.109375,-0.492187 -1.375,-0.613281 c -0.679687,-0.304688 -1.257812,-0.558594 -1.835937,-0.816407 z m 9,-6.394532 c -2.632813,0 -4.855469,0.925782 -6.675781,2.785157 -0.496094,0.496093 -0.925782,1.019531 -1.292969,1.5625 l 4.433594,1.976562 c 0.402343,-1.230469 1.570312,-1.976562 2.988281,-2.058594 V 7.949219 h 1.332031 v 1.789062 c 0.917969,0.042969 1.921875,0.292969 2.914063,1.0625 L 80.03125,12.367188 C 79.46875,11.96875 78.757813,11.6875 78.046875,11.6875 c -0.574219,0 -1.390625,0.175781 -1.390625,0.902344 0,0.109375 0.03906,0.207031 0.105469,0.292969 l 1.484375,0.660156 1.003906,0.445312 c 0.640625,0.289063 1.253906,0.558594 1.859375,0.828125 l 5.941406,2.648438 c 0.199219,-0.78125 0.296875,-1.605469 0.296875,-2.484375 0,-2.648438 -0.929687,-4.890625 -2.785156,-6.722656 C 82.722656,6.398438 80.488281,5.472656 77.855469,5.472656 Z"
         id="path24" />
      <path
         style="fill:#ffffff;fill-opacity:1;fill-rule:nonzero;stroke:none"
         d="m 114.66797,14.980469 c 0.004,5.84375 -4.73047,10.585937 -10.57422,10.59375 C 98.246094,25.578125 93.503906,20.84375 93.5,14.996094 c 0,-0.0039 0,-0.01172 0,-0.01563 -0.0039,-5.84375 4.730469,-10.585938 10.57813,-10.589844 5.84375,-0.00781 10.58593,4.730469 10.58984,10.574219 0,0.0078 0,0.01172 0,0.01563 z"
         id="path26" />
      <path
         style="fill:#000000;fill-opacity:1;fill-rule:nonzero;stroke:none"
         d="m 103.91797,3.386719 c -3.21094,0 -5.929689,1.121094 -8.156251,3.359375 -2.285156,2.320312 -3.425781,5.0625 -3.425781,8.234375 0,3.171875 1.140625,5.894531 3.425781,8.175781 2.28125,2.28125 5.003911,3.417969 8.156251,3.417969 3.19141,0 5.96094,-1.148438 8.30078,-3.445313 2.20703,-2.1875 3.30859,-4.902343 3.30859,-8.148437 0,-3.246094 -1.12109,-5.992188 -3.36718,-8.234375 -2.24219,-2.238281 -4.99219,-3.359375 -8.24219,-3.359375 z m 0.0273,2.085937 c 2.63282,0 4.86719,0.925782 6.70703,2.785157 1.85938,1.832031 2.78516,4.074218 2.78516,6.722656 0,2.667969 -0.91016,4.878906 -2.72656,6.636719 -1.91797,1.894531 -4.17188,2.839843 -6.76563,2.839843 -2.59375,0 -4.828122,-0.933593 -6.703122,-2.808593 -1.878907,-1.875 -2.816407,-4.097657 -2.816407,-6.667969 0,-2.570313 0.949219,-4.8125 2.84375,-6.722656 1.820313,-1.859375 4.042969,-2.785157 6.675779,-2.785157 z"
         id="path28" />
      <path
         style="fill:#000000;fill-opacity:1;fill-rule:nonzero;stroke:none"
         d="m 108.3125,12.234375 h -8.425781 v 1.996094 h 8.425781 z m 0,3.726563 h -8.425781 v 1.996093 h 8.425781 z"
         id="path30" />
      <path
         style="fill:#ffffff;fill-opacity:1;fill-rule:nonzero;stroke:none"
         d="m 62.503906,15.21875 c 0,5.929688 -4.808593,10.734375 -10.738281,10.734375 -5.933594,0 -10.742187,-4.804687 -10.742187,-10.734375 0,-5.933594 4.808593,-10.738281 10.742187,-10.738281 5.929688,0 10.738281,4.804687 10.738281,10.738281 z"
         id="path32" />
      <path
         style="fill:#000000;fill-opacity:1;fill-rule:nonzero;stroke:none"
         d="m 54.871094,12.109375 c 0,-0.414062 -0.335938,-0.75 -0.75,-0.75 h -4.742188 c -0.414062,0 -0.75,0.335938 -0.75,0.75 v 4.742188 h 1.324219 v 5.617187 h 3.59375 v -5.617187 h 1.324219 z"
         id="path34" />
      <path
         style="fill:#000000;fill-opacity:1;fill-rule:nonzero;stroke:none"
         d="m 53.375,9.113281 c 0,0.898438 -0.726562,1.621094 -1.625,1.621094 -0.894531,0 -1.621094,-0.722656 -1.621094,-1.621094 0,-0.894531 0.726563,-1.621093 1.621094,-1.621093 0.898438,0 1.625,0.726562 1.625,1.621093 z"
         id="path36" />
      <path
         style="fill:#000000;fill-opacity:1;fill-rule:evenodd;stroke:none"
         d="m 51.738281,3.386719 c -3.214843,0 -5.933593,1.121094 -8.15625,3.363281 -2.285156,2.316406 -3.425781,5.0625 -3.425781,8.230469 0,3.167969 1.140625,5.894531 3.425781,8.175781 2.28125,2.277344 5,3.417969 8.15625,3.417969 3.191407,0 5.957032,-1.148438 8.300782,-3.449219 2.207031,-2.183594 3.308593,-4.898437 3.308593,-8.144531 0,-3.246094 -1.121093,-5.992188 -3.367187,-8.230469 C 57.734375,4.507813 54.988281,3.386719 51.738281,3.386719 Z m 0.02734,2.085937 c 2.632813,0 4.867188,0.925782 6.703125,2.78125 1.859375,1.835938 2.789063,4.078125 2.789063,6.726563 0,2.667969 -0.910157,4.878906 -2.730469,6.636719 -1.914063,1.894531 -4.167969,2.839843 -6.761719,2.839843 -2.59375,0 -4.828125,-0.933593 -6.707031,-2.808593 -1.875,-1.875 -2.8125,-4.097657 -2.8125,-6.667969 0,-2.570313 0.945312,-4.8125 2.84375,-6.726563 1.820312,-1.855468 4.042969,-2.78125 6.675781,-2.78125 z"
         id="path38" />
    </g>
    <g
       transform="translate(709.02515,-204.06375)"
       id="layer1-5">
      <rect
         style="fill:#0000ff;fill-rule:evenodd;stroke-width:0.26458332;filter:url(#filter26)"
         id="rect10"
         width="151.19048"
         height="176.89285"
         x="30.994049"
         y="56.607143" />
      <flowRoot
         xml:space="preserve"
         id="flowRoot841"
         style="font-style:normal;font-weight:normal;font-size:12px;line-height:1.25;font-family:sans-serif;letter-spacing:0px;word-spacing:0px;fill:#000000;fill-opacity:1;stroke:none"><flowRegion
           id="flowRegion843"><rect
             id="rect845"
             width="400"
             height="408.57144"
             x="282.85715"
             y="511.09113" /></flowRegion><flowPara
           id="flowPara847" /></flowRoot>      <flowRoot
         xml:space="preserve"
         id="flowRoot849"
         style="font-style:normal;font-weight:normal;font-size:64px;line-height:1.25;font-family:sans-serif;letter-spacing:0px;word-spacing:0px;fill:#008f00;fill-opacity:1;stroke:none"
         transform="matrix(0.26457217,0,0,0.26458333,37.799453,33.26173)"><flowRegion
           id="flowRegion851"
           style="font-size:64px;fill:#008f00;fill-opacity:1"><rect
             id="rect853"
             width="534.28571"
             height="622.85712"
             x="200"
             y="328.23398"
             style="font-size:64px;fill:#008f00;fill-opacity:1" /></flowRegion><flowPara
           id="flowPara855"
           style="font-style:normal;font-variant:normal;font-weight:normal;font-stretch:normal;font-size:240.00506592px;font-family:Shimanto;-inkscape-font-specification:Shimanto;fill:#75507b">ই</flowPara></flowRoot>    </g>
  </g>
</svg>
